<svg width="1439" height="94" viewBox="0 0 1439 94" fill="none" xmlns="http://www.w3.org/2000/svg">
    <path d="M-4.88379 55.6218L-4.88379 93.7106L1453.7 93.7106V25.6586C1416.64 32.43 1330.52 48.1056 1282.55 56.6375C1222.6 67.3024 1147.38 73.3966 1036.19 81.0144C924.993 88.6321 734.221 55.6218 722.23 54.0983C710.238 52.5747 608.857 28.1979 414.814 22.6115C259.581 18.1424 70.3349 42.7563 -4.88379 55.6218Z" fill="white"/>
    <path opacity="0.6" d="M-4.12402 44.706L-4.12402 82.7948L1454.46 82.7948V14.7428C1417.4 21.5141 1331.28 37.1898 1283.31 45.7217C1223.36 56.3866 1148.14 62.4808 1036.95 70.0986C925.753 77.7163 734.981 44.706 722.99 43.1825C710.998 41.6589 609.617 17.2821 415.574 11.6957C260.34 7.22661 71.0946 31.8405 -4.12402 44.706Z" fill="white"/>
    <path opacity="0.15" d="M1458.26 33.7905V71.8793L-9.44214 71.8793V3.82725C27.8538 10.5986 114.512 26.2743 162.777 34.8062C223.109 45.471 298.798 51.5652 410.685 59.183C522.573 66.8008 714.537 33.7905 726.604 32.2669C738.67 30.7433 840.685 6.3665 1035.94 0.780144C1192.14 -3.68895 1382.57 20.9249 1458.26 33.7905Z" fill="white"/>
    <path opacity="0.2" d="M1459.02 54.2573V92.3462L-8.6825 92.3462V24.2941C28.6134 31.0655 115.272 46.7411 163.537 55.273C223.869 65.9379 299.557 72.0321 411.445 79.6499C523.333 87.2677 715.297 54.2573 727.363 52.7338C739.43 51.2102 841.445 26.8334 1036.7 21.247C1192.9 16.7779 1383.33 41.3918 1459.02 54.2573Z" fill="white"/>
</svg>
